<svg width="35" height="35" viewBox="0 0 35 35" fill="none" xmlns="http://www.w3.org/2000/svg">
<path d="M22.25 8H12.75C10.1266 8 8 10.1266 8 12.75V22.25C8 24.8734 10.1266 27 12.75 27H22.25C24.8734 27 27 24.8734 27 22.25V12.75C27 10.1266 24.8734 8 22.25 8Z" stroke="white" stroke-width="2" stroke-linecap="round" stroke-linejoin="round"/>
<path d="M21.2999 16.9015C21.4172 17.6921 21.2821 18.4996 20.914 19.209C20.5459 19.9185 19.9634 20.4938 19.2495 20.8532C18.5355 21.2125 17.7265 21.3376 16.9373 21.2106C16.1482 21.0836 15.4192 20.7111 14.854 20.1459C14.2889 19.5807 13.9163 18.8517 13.7893 18.0626C13.6623 17.2735 13.7874 16.4644 14.1467 15.7504C14.5061 15.0365 15.0814 14.454 15.7909 14.0859C16.5003 13.7178 17.3078 13.5827 18.0984 13.7C18.9049 13.8196 19.6515 14.1954 20.228 14.7719C20.8045 15.3484 21.1803 16.095 21.2999 16.9015Z" stroke="white" stroke-width="2" stroke-linecap="round" stroke-linejoin="round"/>
<path d="M22.7249 12.2751H22.7369" stroke="white" stroke-width="2" stroke-linecap="round" stroke-linejoin="round"/>
<circle cx="17.5" cy="17.5" r="17" stroke="#F5F5F5"/>
</svg>
