<svg width="35" height="35" viewBox="0 0 35 35" fill="none" xmlns="http://www.w3.org/2000/svg">
<path d="M22 14C23.5913 14 25.1174 14.6321 26.2426 15.7574C27.3679 16.8826 28 18.4087 28 20V27H24V20C24 19.4696 23.7893 18.9609 23.4142 18.5858C23.0391 18.2107 22.5304 18 22 18C21.4696 18 20.9609 18.2107 20.5858 18.5858C20.2107 18.9609 20 19.4696 20 20V27H16V20C16 18.4087 16.6321 16.8826 17.7574 15.7574C18.8826 14.6321 20.4087 14 22 14Z" fill="#F5F5F5"/>
<path d="M12 15H8V27H12V15Z" fill="#F5F5F5"/>
<path d="M10 12C11.1046 12 12 11.1046 12 10C12 8.89543 11.1046 8 10 8C8.89543 8 8 8.89543 8 10C8 11.1046 8.89543 12 10 12Z" fill="#F5F5F5"/>
<circle cx="17.5" cy="17.5" r="17" stroke="#F5F5F5"/>
</svg>
