<svg width="35" height="35" viewBox="0 0 35 35" fill="none" xmlns="http://www.w3.org/2000/svg">
<path d="M29 9.01006C28.0424 9.68553 26.9821 10.2022 25.86 10.5401C25.2577 9.84757 24.4573 9.35675 23.567 9.13398C22.6767 8.91122 21.7395 8.96725 20.8821 9.29451C20.0247 9.62177 19.2884 10.2045 18.773 10.9638C18.2575 11.7231 17.9877 12.6224 18 13.5401V14.5401C16.2426 14.5856 14.5013 14.1959 12.931 13.4055C11.3607 12.6151 10.0103 11.4487 9 10.0101C9 10.0101 5 19.0101 14 23.0101C11.9405 24.408 9.48716 25.109 7 25.0101C16 30.0101 27 25.0101 27 13.5101C26.9991 13.2315 26.9723 12.9537 26.92 12.6801C27.9406 11.6735 28.6608 10.4028 29 9.01006Z" fill="white"/>
<circle cx="17.5" cy="17.5" r="17" stroke="#F5F5F5"/>
</svg>
