<svg width="35" height="35" viewBox="0 0 35 35" fill="none" xmlns="http://www.w3.org/2000/svg">
<path d="M28.5406 11.42C28.4218 10.9454 28.1799 10.5106 27.8392 10.1594C27.4986 9.80824 27.0713 9.55318 26.6006 9.42C24.8806 9 18.0006 9 18.0006 9C18.0006 9 11.1206 9 9.40057 9.46C8.92982 9.59318 8.50255 9.84824 8.16192 10.1994C7.82129 10.5506 7.57936 10.9854 7.46057 11.46C7.14579 13.2056 6.99181 14.9763 7.00057 16.75C6.98935 18.537 7.14334 20.3213 7.46057 22.08C7.59153 22.5398 7.83888 22.9581 8.17872 23.2945C8.51855 23.6308 8.93939 23.8738 9.40057 24C11.1206 24.46 18.0006 24.46 18.0006 24.46C18.0006 24.46 24.8806 24.46 26.6006 24C27.0713 23.8668 27.4986 23.6118 27.8392 23.2606C28.1799 22.9094 28.4218 22.4746 28.5406 22C28.8529 20.2676 29.0069 18.5103 29.0006 16.75C29.0118 14.963 28.8578 13.1787 28.5406 11.42Z" fill="#FF2D2D"/>
<path d="M15.7506 20.02L21.5006 16.75L15.7506 13.48V20.02Z" fill="white"/>
<circle cx="17.5" cy="17.5" r="17" stroke="#FF2D2D"/>
</svg>
